<svg width="27" height="29" viewBox="0 0 27 29" fill="none" xmlns="http://www.w3.org/2000/svg">
<g filter="url(#filter0_d_550_3952)">
<path d="M8 0.5H19C20.933 0.5 22.5 2.067 22.5 4V17C22.5 18.933 20.933 20.5 19 20.5H8C6.067 20.5 4.5 18.933 4.5 17V4C4.5 2.067 6.067 0.5 8 0.5Z" stroke="black" shape-rendering="crispEdges"/>
</g>
<path d="M17.0284 17.6131H9.97128C9.83488 17.6132 9.70386 17.5564 9.60619 17.4551C9.50852 17.3537 9.45194 17.2157 9.44853 17.0705L8.92578 6.77441H18.0739L17.5512 17.0928C17.5425 17.234 17.4837 17.3664 17.3866 17.4631C17.2894 17.5598 17.1614 17.6134 17.0284 17.6131ZM9.47728 7.31705L9.97651 17.0566H17.0337L17.5329 7.31705H9.47728Z" fill="black"/>
<path d="M19.0316 7.44914H7.95482C7.90012 7.45388 7.84527 7.44395 7.79349 7.41994C7.74171 7.39592 7.69404 7.35832 7.6533 7.30933C7.61256 7.26034 7.57956 7.20096 7.55625 7.13468C7.53295 7.0684 7.5198 6.99656 7.51758 6.92339V6.84161L7.79741 5.167C7.82144 5.04123 7.87716 4.93035 7.95521 4.85304C8.03325 4.77572 8.12885 4.73669 8.22591 4.74251H18.7605C18.8576 4.73669 18.9532 4.77572 19.0313 4.85304C19.1093 4.93035 19.165 5.04123 19.189 5.167L19.4805 6.94287C19.4765 7.01577 19.4616 7.08687 19.4368 7.15199C19.4119 7.21711 19.3776 7.27495 19.3358 7.32211C19.294 7.36926 19.2455 7.40479 19.1933 7.4266C19.1411 7.44842 19.0861 7.45608 19.0316 7.44914ZM8.14721 6.67026H18.8393L18.6498 5.50193H8.33668L8.14721 6.67026Z" fill="black"/>
<path d="M11.7402 8.80664H11.0371V15.5808H11.7402V8.80664Z" fill="black"/>
<path d="M13.8515 8.80664H13.1484V15.5808H13.8515V8.80664Z" fill="black"/>
<path d="M15.2588 5.41947H14.7748V3.94475H12.2242V5.41947H11.7402V3.94475C11.7402 3.79688 11.7912 3.65507 11.882 3.55051C11.9728 3.44595 12.0959 3.38721 12.2242 3.38721H14.7748C14.9031 3.38721 15.0262 3.44595 15.117 3.55051C15.2078 3.65507 15.2588 3.79688 15.2588 3.94475V5.41947Z" fill="black"/>
<defs>
<filter id="filter0_d_550_3952" x="0" y="0" width="27" height="29" filterUnits="userSpaceOnUse" color-interpolation-filters="sRGB">
<feFlood flood-opacity="0" result="BackgroundImageFix"/>
<feColorMatrix in="SourceAlpha" type="matrix" values="0 0 0 0 0 0 0 0 0 0 0 0 0 0 0 0 0 0 127 0" result="hardAlpha"/>
<feOffset dy="4"/>
<feGaussianBlur stdDeviation="2"/>
<feComposite in2="hardAlpha" operator="out"/>
<feColorMatrix type="matrix" values="0 0 0 0 0 0 0 0 0 0 0 0 0 0 0 0 0 0 0.25 0"/>
<feBlend mode="normal" in2="BackgroundImageFix" result="effect1_dropShadow_550_3952"/>
<feBlend mode="normal" in="SourceGraphic" in2="effect1_dropShadow_550_3952" result="shape"/>
</filter>
</defs>
</svg>
