<svg width="65" height="44" viewBox="0 0 65 44" fill="none" xmlns="http://www.w3.org/2000/svg">
<path d="M28.5682 10H26.5057V4.18182H28.5852C29.1705 4.18182 29.6742 4.2983 30.0966 4.53125C30.5189 4.76231 30.8438 5.0947 31.071 5.52841C31.3002 5.96212 31.4148 6.48106 31.4148 7.08523C31.4148 7.69129 31.3002 8.21212 31.071 8.64773C30.8438 9.08333 30.517 9.41761 30.0909 9.65057C29.6667 9.88352 29.1591 10 28.5682 10ZM27.7358 8.94602H28.517C28.8807 8.94602 29.1866 8.88163 29.4347 8.75284C29.6847 8.62216 29.8722 8.42045 29.9972 8.14773C30.1241 7.87311 30.1875 7.51894 30.1875 7.08523C30.1875 6.6553 30.1241 6.30398 29.9972 6.03125C29.8722 5.75852 29.6856 5.55777 29.4375 5.42898C29.1894 5.30019 28.8835 5.2358 28.5199 5.2358H27.7358V8.94602ZM34.2919 10.0852C33.843 10.0852 33.4567 9.99432 33.1328 9.8125C32.8108 9.62879 32.5627 9.36932 32.3885 9.03409C32.2143 8.69697 32.1271 8.2983 32.1271 7.83807C32.1271 7.3892 32.2143 6.99527 32.3885 6.65625C32.5627 6.31723 32.808 6.05303 33.1243 5.86364C33.4425 5.67424 33.8156 5.57955 34.2436 5.57955C34.5315 5.57955 34.7995 5.62595 35.0476 5.71875C35.2976 5.80966 35.5154 5.94697 35.701 6.13068C35.8885 6.31439 36.0343 6.54545 36.1385 6.82386C36.2427 7.10038 36.2947 7.42424 36.2947 7.79545V8.12784H32.6101V7.37784H35.1555C35.1555 7.2036 35.1177 7.04924 35.0419 6.91477C34.9661 6.7803 34.861 6.67519 34.7266 6.59943C34.594 6.52178 34.4396 6.48295 34.2635 6.48295C34.0798 6.48295 33.9169 6.52557 33.7749 6.6108C33.6347 6.69413 33.5249 6.80682 33.4453 6.94886C33.3658 7.08902 33.325 7.24527 33.3232 7.41761V8.13068C33.3232 8.34659 33.3629 8.53314 33.4425 8.69034C33.5239 8.84754 33.6385 8.96875 33.7862 9.05398C33.9339 9.1392 34.1091 9.18182 34.3118 9.18182C34.4463 9.18182 34.5694 9.16288 34.6811 9.125C34.7929 9.08712 34.8885 9.0303 34.968 8.95455C35.0476 8.87879 35.1082 8.78598 35.1499 8.67614L36.2692 8.75C36.2124 9.01894 36.0959 9.25379 35.9197 9.45455C35.7455 9.65341 35.5201 9.80871 35.2436 9.92045C34.969 10.0303 34.6518 10.0852 34.2919 10.0852ZM39.4311 5.63636V6.54545H36.7379V5.63636H39.4311ZM37.3544 10V5.32102C37.3544 5.00473 37.416 4.74242 37.5391 4.53409C37.6641 4.32576 37.8345 4.16951 38.0504 4.06534C38.2663 3.96117 38.5116 3.90909 38.7862 3.90909C38.9718 3.90909 39.1413 3.9233 39.2947 3.9517C39.45 3.98011 39.5656 4.00568 39.6413 4.02841L39.4254 4.9375C39.3781 4.92235 39.3194 4.90814 39.2493 4.89489C39.1811 4.88163 39.111 4.875 39.0391 4.875C38.861 4.875 38.737 4.91667 38.6669 5C38.5968 5.08144 38.5618 5.19602 38.5618 5.34375V10H37.3544ZM42.0028 10.0852C41.554 10.0852 41.1676 9.99432 40.8438 9.8125C40.5218 9.62879 40.2737 9.36932 40.0994 9.03409C39.9252 8.69697 39.8381 8.2983 39.8381 7.83807C39.8381 7.3892 39.9252 6.99527 40.0994 6.65625C40.2737 6.31723 40.5189 6.05303 40.8352 5.86364C41.1534 5.67424 41.5265 5.57955 41.9545 5.57955C42.2424 5.57955 42.5104 5.62595 42.7585 5.71875C43.0085 5.80966 43.2263 5.94697 43.4119 6.13068C43.5994 6.31439 43.7453 6.54545 43.8494 6.82386C43.9536 7.10038 44.0057 7.42424 44.0057 7.79545V8.12784H40.321V7.37784H42.8665C42.8665 7.2036 42.8286 7.04924 42.7528 6.91477C42.6771 6.7803 42.572 6.67519 42.4375 6.59943C42.3049 6.52178 42.1506 6.48295 41.9744 6.48295C41.7907 6.48295 41.6278 6.52557 41.4858 6.6108C41.3456 6.69413 41.2358 6.80682 41.1562 6.94886C41.0767 7.08902 41.036 7.24527 41.0341 7.41761V8.13068C41.0341 8.34659 41.0739 8.53314 41.1534 8.69034C41.2348 8.84754 41.3494 8.96875 41.4972 9.05398C41.6449 9.1392 41.8201 9.18182 42.0227 9.18182C42.1572 9.18182 42.2803 9.16288 42.392 9.125C42.5038 9.08712 42.5994 9.0303 42.679 8.95455C42.7585 8.87879 42.8191 8.78598 42.8608 8.67614L43.9801 8.75C43.9233 9.01894 43.8068 9.25379 43.6307 9.45455C43.4564 9.65341 43.2311 9.80871 42.9545 9.92045C42.6799 10.0303 42.3627 10.0852 42.0028 10.0852ZM46.0057 7.47727V10H44.7955V5.63636H45.9489V6.40625H46C46.0966 6.15246 46.2585 5.9517 46.4858 5.80398C46.7131 5.65436 46.9886 5.57955 47.3125 5.57955C47.6155 5.57955 47.8797 5.64583 48.1051 5.77841C48.3305 5.91098 48.5057 6.10038 48.6307 6.34659C48.7557 6.59091 48.8182 6.88258 48.8182 7.22159V10H47.608V7.4375C47.6098 7.17045 47.5417 6.96212 47.4034 6.8125C47.2652 6.66098 47.0748 6.58523 46.8324 6.58523C46.6695 6.58523 46.5256 6.62027 46.4006 6.69034C46.2775 6.76042 46.1809 6.86269 46.1108 6.99716C46.0426 7.12973 46.0076 7.28977 46.0057 7.47727ZM51.7436 10.0852C51.2966 10.0852 50.9122 9.99053 50.5902 9.80114C50.2701 9.60985 50.0239 9.3447 49.8516 9.00568C49.6811 8.66667 49.5959 8.27652 49.5959 7.83523C49.5959 7.38826 49.6821 6.99621 49.8544 6.65909C50.0286 6.32008 50.2758 6.05587 50.5959 5.86648C50.916 5.67519 51.2966 5.57955 51.7379 5.57955C52.1186 5.57955 52.4519 5.64867 52.7379 5.78693C53.0239 5.92519 53.2502 6.11932 53.4169 6.36932C53.5836 6.61932 53.6754 6.91288 53.6925 7.25H52.5504C52.5182 7.0322 52.433 6.85701 52.2947 6.72443C52.1584 6.58996 51.9794 6.52273 51.7578 6.52273C51.5703 6.52273 51.4065 6.57386 51.2663 6.67614C51.1281 6.77652 51.0201 6.9233 50.9425 7.11648C50.8648 7.30966 50.826 7.54356 50.826 7.81818C50.826 8.09659 50.8639 8.33333 50.9396 8.52841C51.0173 8.72348 51.1262 8.87216 51.2663 8.97443C51.4065 9.0767 51.5703 9.12784 51.7578 9.12784C51.8961 9.12784 52.0201 9.09943 52.13 9.04261C52.2417 8.9858 52.3336 8.90341 52.4055 8.79545C52.4794 8.68561 52.5277 8.55398 52.5504 8.40057H53.6925C53.6735 8.7339 53.5826 9.02746 53.4197 9.28125C53.2588 9.53314 53.0362 9.73011 52.7521 9.87216C52.468 10.0142 52.1319 10.0852 51.7436 10.0852ZM56.456 10.0852C56.0071 10.0852 55.6207 9.99432 55.2969 9.8125C54.9749 9.62879 54.7268 9.36932 54.5526 9.03409C54.3783 8.69697 54.2912 8.2983 54.2912 7.83807C54.2912 7.3892 54.3783 6.99527 54.5526 6.65625C54.7268 6.31723 54.9721 6.05303 55.2884 5.86364C55.6065 5.67424 55.9796 5.57955 56.4077 5.57955C56.6955 5.57955 56.9635 5.62595 57.2116 5.71875C57.4616 5.80966 57.6795 5.94697 57.8651 6.13068C58.0526 6.31439 58.1984 6.54545 58.3026 6.82386C58.4067 7.10038 58.4588 7.42424 58.4588 7.79545V8.12784H54.7741V7.37784H57.3196C57.3196 7.2036 57.2817 7.04924 57.206 6.91477C57.1302 6.7803 57.0251 6.67519 56.8906 6.59943C56.758 6.52178 56.6037 6.48295 56.4276 6.48295C56.2438 6.48295 56.081 6.52557 55.9389 6.6108C55.7988 6.69413 55.6889 6.80682 55.6094 6.94886C55.5298 7.08902 55.4891 7.24527 55.4872 7.41761V8.13068C55.4872 8.34659 55.527 8.53314 55.6065 8.69034C55.688 8.84754 55.8026 8.96875 55.9503 9.05398C56.098 9.1392 56.2732 9.18182 56.4759 9.18182C56.6103 9.18182 56.7334 9.16288 56.8452 9.125C56.9569 9.08712 57.0526 9.0303 57.1321 8.95455C57.2116 8.87879 57.2723 8.78598 57.3139 8.67614L58.4332 8.75C58.3764 9.01894 58.2599 9.25379 58.0838 9.45455C57.9096 9.65341 57.6842 9.80871 57.4077 9.92045C57.133 10.0303 56.8158 10.0852 56.456 10.0852ZM27.7358 14.1818V20H26.5057V14.1818H27.7358ZM29.9354 17.4773V20H28.7251V15.6364H29.8786V16.4062H29.9297C30.0263 16.1525 30.1882 15.9517 30.4155 15.804C30.6428 15.6544 30.9183 15.5795 31.2422 15.5795C31.5452 15.5795 31.8094 15.6458 32.0348 15.7784C32.2602 15.911 32.4354 16.1004 32.5604 16.3466C32.6854 16.5909 32.7479 16.8826 32.7479 17.2216V20H31.5376V17.4375C31.5395 17.1705 31.4714 16.9621 31.3331 16.8125C31.1948 16.661 31.0045 16.5852 30.7621 16.5852C30.5992 16.5852 30.4553 16.6203 30.3303 16.6903C30.2071 16.7604 30.1106 16.8627 30.0405 16.9972C29.9723 17.1297 29.9373 17.2898 29.9354 17.4773ZM35.6733 20.0852C35.2263 20.0852 34.8419 19.9905 34.5199 19.8011C34.1998 19.6098 33.9536 19.3447 33.7812 19.0057C33.6108 18.6667 33.5256 18.2765 33.5256 17.8352C33.5256 17.3883 33.6117 16.9962 33.7841 16.6591C33.9583 16.3201 34.2055 16.0559 34.5256 15.8665C34.8456 15.6752 35.2263 15.5795 35.6676 15.5795C36.0483 15.5795 36.3816 15.6487 36.6676 15.7869C36.9536 15.9252 37.1799 16.1193 37.3466 16.3693C37.5133 16.6193 37.6051 16.9129 37.6222 17.25H36.4801C36.4479 17.0322 36.3627 16.857 36.2244 16.7244C36.0881 16.59 35.9091 16.5227 35.6875 16.5227C35.5 16.5227 35.3362 16.5739 35.196 16.6761C35.0578 16.7765 34.9498 16.9233 34.8722 17.1165C34.7945 17.3097 34.7557 17.5436 34.7557 17.8182C34.7557 18.0966 34.7936 18.3333 34.8693 18.5284C34.947 18.7235 35.0559 18.8722 35.196 18.9744C35.3362 19.0767 35.5 19.1278 35.6875 19.1278C35.8258 19.1278 35.9498 19.0994 36.0597 19.0426C36.1714 18.9858 36.2633 18.9034 36.3352 18.7955C36.4091 18.6856 36.4574 18.554 36.4801 18.4006H37.6222C37.6032 18.7339 37.5123 19.0275 37.3494 19.2812C37.1884 19.5331 36.9659 19.7301 36.6818 19.8722C36.3977 20.0142 36.0616 20.0852 35.6733 20.0852ZM38.397 20V15.6364H39.6072V20H38.397ZM39.005 15.0739C38.825 15.0739 38.6707 15.0142 38.5419 14.8949C38.415 14.7737 38.3516 14.6288 38.3516 14.4602C38.3516 14.2936 38.415 14.1506 38.5419 14.0312C38.6707 13.91 38.825 13.8494 39.005 13.8494C39.1849 13.8494 39.3383 13.91 39.4652 14.0312C39.594 14.1506 39.6584 14.2936 39.6584 14.4602C39.6584 14.6288 39.594 14.7737 39.4652 14.8949C39.3383 15.0142 39.1849 15.0739 39.005 15.0739ZM42.1847 20.071C41.8532 20.071 41.553 19.9858 41.2841 19.8153C41.017 19.643 40.8049 19.3902 40.6477 19.0568C40.4924 18.7216 40.4148 18.3106 40.4148 17.8239C40.4148 17.3239 40.4953 16.9081 40.6562 16.5767C40.8172 16.2434 41.0313 15.9943 41.2983 15.8295C41.5672 15.6629 41.8617 15.5795 42.1818 15.5795C42.4261 15.5795 42.6297 15.6212 42.7926 15.7045C42.9574 15.786 43.09 15.8883 43.1903 16.0114C43.2926 16.1326 43.3703 16.2519 43.4233 16.3693H43.4602V14.1818H44.6676V20H43.4744V19.3011H43.4233C43.3665 19.4223 43.286 19.5426 43.1818 19.6619C43.0795 19.7794 42.946 19.8769 42.7812 19.9545C42.6184 20.0322 42.4195 20.071 42.1847 20.071ZM42.5682 19.108C42.7633 19.108 42.928 19.0549 43.0625 18.9489C43.1989 18.8409 43.303 18.6903 43.375 18.4972C43.4489 18.304 43.4858 18.0777 43.4858 17.8182C43.4858 17.5587 43.4498 17.3333 43.3778 17.142C43.3059 16.9508 43.2017 16.803 43.0653 16.6989C42.929 16.5947 42.7633 16.5426 42.5682 16.5426C42.3693 16.5426 42.2017 16.5966 42.0653 16.7045C41.929 16.8125 41.8258 16.9621 41.7557 17.1534C41.6856 17.3447 41.6506 17.5663 41.6506 17.8182C41.6506 18.072 41.6856 18.2964 41.7557 18.4915C41.8277 18.6847 41.9309 18.8362 42.0653 18.946C42.2017 19.054 42.3693 19.108 42.5682 19.108ZM47.6513 20.0852C47.2024 20.0852 46.8161 19.9943 46.4922 19.8125C46.1702 19.6288 45.9221 19.3693 45.7479 19.0341C45.5736 18.697 45.4865 18.2983 45.4865 17.8381C45.4865 17.3892 45.5736 16.9953 45.7479 16.6562C45.9221 16.3172 46.1674 16.053 46.4837 15.8636C46.8018 15.6742 47.175 15.5795 47.603 15.5795C47.8909 15.5795 48.1589 15.6259 48.407 15.7188C48.657 15.8097 48.8748 15.947 49.0604 16.1307C49.2479 16.3144 49.3937 16.5455 49.4979 16.8239C49.602 17.1004 49.6541 17.4242 49.6541 17.7955V18.1278H45.9695V17.3778H48.5149C48.5149 17.2036 48.477 17.0492 48.4013 16.9148C48.3255 16.7803 48.2204 16.6752 48.0859 16.5994C47.9534 16.5218 47.799 16.483 47.6229 16.483C47.4392 16.483 47.2763 16.5256 47.1342 16.6108C46.9941 16.6941 46.8842 16.8068 46.8047 16.9489C46.7251 17.089 46.6844 17.2453 46.6825 17.4176V18.1307C46.6825 18.3466 46.7223 18.5331 46.8018 18.6903C46.8833 18.8475 46.9979 18.9688 47.1456 19.054C47.2933 19.1392 47.4685 19.1818 47.6712 19.1818C47.8056 19.1818 47.9287 19.1629 48.0405 19.125C48.1522 19.0871 48.2479 19.0303 48.3274 18.9545C48.407 18.8788 48.4676 18.786 48.5092 18.6761L49.6286 18.75C49.5717 19.0189 49.4553 19.2538 49.2791 19.4545C49.1049 19.6534 48.8795 19.8087 48.603 19.9205C48.3284 20.0303 48.0111 20.0852 47.6513 20.0852ZM51.6541 17.4773V20H50.4439V15.6364H51.5973V16.4062H51.6484C51.745 16.1525 51.907 15.9517 52.1342 15.804C52.3615 15.6544 52.6371 15.5795 52.9609 15.5795C53.264 15.5795 53.5282 15.6458 53.7536 15.7784C53.9789 15.911 54.1541 16.1004 54.2791 16.3466C54.4041 16.5909 54.4666 16.8826 54.4666 17.2216V20H53.2564V17.4375C53.2583 17.1705 53.1901 16.9621 53.0518 16.8125C52.9136 16.661 52.7232 16.5852 52.4808 16.5852C52.3179 16.5852 52.174 16.6203 52.049 16.6903C51.9259 16.7604 51.8293 16.8627 51.7592 16.9972C51.6911 17.1297 51.656 17.2898 51.6541 17.4773ZM57.392 20.0852C56.9451 20.0852 56.5606 19.9905 56.2386 19.8011C55.9186 19.6098 55.6723 19.3447 55.5 19.0057C55.3295 18.6667 55.2443 18.2765 55.2443 17.8352C55.2443 17.3883 55.3305 16.9962 55.5028 16.6591C55.6771 16.3201 55.9242 16.0559 56.2443 15.8665C56.5644 15.6752 56.9451 15.5795 57.3864 15.5795C57.767 15.5795 58.1004 15.6487 58.3864 15.7869C58.6723 15.9252 58.8987 16.1193 59.0653 16.3693C59.232 16.6193 59.3239 16.9129 59.3409 17.25H58.1989C58.1667 17.0322 58.0814 16.857 57.9432 16.7244C57.8068 16.59 57.6278 16.5227 57.4062 16.5227C57.2188 16.5227 57.0549 16.5739 56.9148 16.6761C56.7765 16.7765 56.6686 16.9233 56.5909 17.1165C56.5133 17.3097 56.4744 17.5436 56.4744 17.8182C56.4744 18.0966 56.5123 18.3333 56.5881 18.5284C56.6657 18.7235 56.7746 18.8722 56.9148 18.9744C57.0549 19.0767 57.2188 19.1278 57.4062 19.1278C57.5445 19.1278 57.6686 19.0994 57.7784 19.0426C57.8902 18.9858 57.982 18.9034 58.054 18.7955C58.1278 18.6856 58.1761 18.554 58.1989 18.4006H59.3409C59.322 18.7339 59.2311 19.0275 59.0682 19.2812C58.9072 19.5331 58.6847 19.7301 58.4006 19.8722C58.1165 20.0142 57.7803 20.0852 57.392 20.0852ZM62.1044 20.0852C61.6555 20.0852 61.2692 19.9943 60.9453 19.8125C60.6233 19.6288 60.3752 19.3693 60.201 19.0341C60.0268 18.697 59.9396 18.2983 59.9396 17.8381C59.9396 17.3892 60.0268 16.9953 60.201 16.6562C60.3752 16.3172 60.6205 16.053 60.9368 15.8636C61.255 15.6742 61.6281 15.5795 62.0561 15.5795C62.344 15.5795 62.612 15.6259 62.8601 15.7188C63.1101 15.8097 63.3279 15.947 63.5135 16.1307C63.701 16.3144 63.8468 16.5455 63.951 16.8239C64.0552 17.1004 64.1072 17.4242 64.1072 17.7955V18.1278H60.4226V17.3778H62.968C62.968 17.2036 62.9302 17.0492 62.8544 16.9148C62.7786 16.7803 62.6735 16.6752 62.5391 16.5994C62.4065 16.5218 62.2521 16.483 62.076 16.483C61.8923 16.483 61.7294 16.5256 61.5874 16.6108C61.4472 16.6941 61.3374 16.8068 61.2578 16.9489C61.1783 17.089 61.1375 17.2453 61.1357 17.4176V18.1307C61.1357 18.3466 61.1754 18.5331 61.255 18.6903C61.3364 18.8475 61.451 18.9688 61.5987 19.054C61.7464 19.1392 61.9216 19.1818 62.1243 19.1818C62.2588 19.1818 62.3819 19.1629 62.4936 19.125C62.6054 19.0871 62.701 19.0303 62.7805 18.9545C62.8601 18.8788 62.9207 18.786 62.9624 18.6761L64.0817 18.75C64.0249 19.0189 63.9084 19.2538 63.7322 19.4545C63.558 19.6534 63.3326 19.8087 63.0561 19.9205C62.7815 20.0303 62.4643 20.0852 62.1044 20.0852ZM26.5057 30V24.1818H28.8011C29.2405 24.1818 29.6155 24.2604 29.9261 24.4176C30.2386 24.5729 30.4763 24.7936 30.6392 25.0795C30.804 25.3636 30.8864 25.6979 30.8864 26.0824C30.8864 26.4687 30.803 26.8011 30.6364 27.0795C30.4697 27.3561 30.2282 27.5682 29.9119 27.7159C29.5975 27.8636 29.2169 27.9375 28.7699 27.9375H27.233V26.9489H28.571C28.8059 26.9489 29.0009 26.9167 29.1562 26.8523C29.3116 26.7879 29.4271 26.6913 29.5028 26.5625C29.5805 26.4337 29.6193 26.2737 29.6193 26.0824C29.6193 25.8892 29.5805 25.7263 29.5028 25.5938C29.4271 25.4612 29.3106 25.3608 29.1534 25.2926C28.9981 25.2225 28.8021 25.1875 28.5653 25.1875H27.7358V30H26.5057ZM29.6477 27.3523L31.0938 30H29.7358L28.321 27.3523H29.6477ZM33.6513 30.0852C33.2024 30.0852 32.8161 29.9943 32.4922 29.8125C32.1702 29.6288 31.9221 29.3693 31.7479 29.0341C31.5736 28.697 31.4865 28.2983 31.4865 27.8381C31.4865 27.3892 31.5736 26.9953 31.7479 26.6562C31.9221 26.3172 32.1674 26.053 32.4837 25.8636C32.8018 25.6742 33.175 25.5795 33.603 25.5795C33.8909 25.5795 34.1589 25.6259 34.407 25.7188C34.657 25.8097 34.8748 25.947 35.0604 26.1307C35.2479 26.3144 35.3937 26.5455 35.4979 26.8239C35.602 27.1004 35.6541 27.4242 35.6541 27.7955V28.1278H31.9695V27.3778H34.5149C34.5149 27.2036 34.477 27.0492 34.4013 26.9148C34.3255 26.7803 34.2204 26.6752 34.0859 26.5994C33.9534 26.5218 33.799 26.483 33.6229 26.483C33.4392 26.483 33.2763 26.5256 33.1342 26.6108C32.9941 26.6941 32.8842 26.8068 32.8047 26.9489C32.7251 27.089 32.6844 27.2453 32.6825 27.4176V28.1307C32.6825 28.3466 32.7223 28.5331 32.8018 28.6903C32.8833 28.8475 32.9979 28.9688 33.1456 29.054C33.2933 29.1392 33.4685 29.1818 33.6712 29.1818C33.8056 29.1818 33.9287 29.1629 34.0405 29.125C34.1522 29.0871 34.2479 29.0303 34.3274 28.9545C34.407 28.8788 34.4676 28.786 34.5092 28.6761L35.6286 28.75C35.5717 29.0189 35.4553 29.2538 35.2791 29.4545C35.1049 29.6534 34.8795 29.8087 34.603 29.9205C34.3284 30.0303 34.0111 30.0852 33.6513 30.0852ZM40.0746 26.8807L38.9666 26.9489C38.9477 26.8542 38.907 26.7689 38.8445 26.6932C38.782 26.6155 38.6996 26.554 38.5973 26.5085C38.4969 26.4612 38.3767 26.4375 38.2365 26.4375C38.049 26.4375 37.8909 26.4773 37.7621 26.5568C37.6333 26.6345 37.5689 26.7386 37.5689 26.8693C37.5689 26.9735 37.6106 27.0616 37.6939 27.1335C37.7772 27.2055 37.9202 27.2633 38.1229 27.3068L38.9126 27.4659C39.3369 27.553 39.6532 27.6932 39.8615 27.8864C40.0698 28.0795 40.174 28.3333 40.174 28.6477C40.174 28.9337 40.0897 29.1847 39.9212 29.4006C39.7545 29.6165 39.5253 29.785 39.2337 29.9062C38.9439 30.0256 38.6096 30.0852 38.2308 30.0852C37.6532 30.0852 37.1929 29.965 36.8501 29.7244C36.5092 29.482 36.3094 29.1525 36.2507 28.7358L37.4411 28.6733C37.477 28.8494 37.5642 28.9839 37.7024 29.0767C37.8407 29.1676 38.0178 29.2131 38.2337 29.2131C38.4458 29.2131 38.6162 29.1723 38.745 29.0909C38.8757 29.0076 38.942 28.9006 38.9439 28.7699C38.942 28.66 38.8956 28.5701 38.8047 28.5C38.7138 28.428 38.5736 28.3731 38.3842 28.3352L37.6286 28.1847C37.2024 28.0994 36.8852 27.9517 36.6768 27.7415C36.4704 27.5312 36.3672 27.2633 36.3672 26.9375C36.3672 26.6572 36.4429 26.4157 36.5945 26.2131C36.7479 26.0104 36.9628 25.8542 37.2393 25.7443C37.5178 25.6345 37.8435 25.5795 38.2166 25.5795C38.7678 25.5795 39.2015 25.696 39.5178 25.929C39.8359 26.1619 40.0215 26.4792 40.0746 26.8807ZM40.9361 31.6364V25.6364H42.1293V26.3693H42.1832C42.2363 26.2519 42.313 26.1326 42.4134 26.0114C42.5156 25.8883 42.6482 25.786 42.8111 25.7045C42.9759 25.6212 43.1804 25.5795 43.4247 25.5795C43.7429 25.5795 44.0365 25.6629 44.3054 25.8295C44.5743 25.9943 44.7893 26.2434 44.9503 26.5767C45.1113 26.9081 45.1918 27.3239 45.1918 27.8239C45.1918 28.3106 45.1132 28.7216 44.956 29.0568C44.8007 29.3902 44.5885 29.643 44.3196 29.8153C44.0526 29.9858 43.7533 30.071 43.4219 30.071C43.187 30.071 42.9872 30.0322 42.8224 29.9545C42.6596 29.8769 42.526 29.7794 42.4219 29.6619C42.3177 29.5426 42.2382 29.4223 42.1832 29.3011H42.1463V31.6364H40.9361ZM42.1207 27.8182C42.1207 28.0777 42.1567 28.304 42.2287 28.4972C42.3007 28.6903 42.4048 28.8409 42.5412 28.9489C42.6776 29.0549 42.8433 29.108 43.0384 29.108C43.2353 29.108 43.402 29.054 43.5384 28.946C43.6747 28.8362 43.7779 28.6847 43.848 28.4915C43.92 28.2964 43.956 28.072 43.956 27.8182C43.956 27.5663 43.9209 27.3447 43.8509 27.1534C43.7808 26.9621 43.6776 26.8125 43.5412 26.7045C43.4048 26.5966 43.2372 26.5426 43.0384 26.5426C42.8414 26.5426 42.6747 26.5947 42.5384 26.6989C42.4039 26.803 42.3007 26.9508 42.2287 27.142C42.1567 27.3333 42.1207 27.5587 42.1207 27.8182ZM47.9702 30.0852C47.5289 30.0852 47.1473 29.9915 46.8253 29.804C46.5052 29.6146 46.258 29.3513 46.0838 29.0142C45.9096 28.6752 45.8224 28.2822 45.8224 27.8352C45.8224 27.3845 45.9096 26.9905 46.0838 26.6534C46.258 26.3144 46.5052 26.0511 46.8253 25.8636C47.1473 25.6742 47.5289 25.5795 47.9702 25.5795C48.4115 25.5795 48.7921 25.6742 49.1122 25.8636C49.4342 26.0511 49.6823 26.3144 49.8565 26.6534C50.0308 26.9905 50.1179 27.3845 50.1179 27.8352C50.1179 28.2822 50.0308 28.6752 49.8565 29.0142C49.6823 29.3513 49.4342 29.6146 49.1122 29.804C48.7921 29.9915 48.4115 30.0852 47.9702 30.0852ZM47.9759 29.1477C48.1766 29.1477 48.3442 29.0909 48.4787 28.9773C48.6132 28.8617 48.7145 28.7045 48.7827 28.5057C48.8527 28.3068 48.8878 28.0805 48.8878 27.8267C48.8878 27.5729 48.8527 27.3466 48.7827 27.1477C48.7145 26.9489 48.6132 26.7917 48.4787 26.6761C48.3442 26.5606 48.1766 26.5028 47.9759 26.5028C47.7732 26.5028 47.6027 26.5606 47.4645 26.6761C47.3281 26.7917 47.2249 26.9489 47.1548 27.1477C47.0866 27.3466 47.0526 27.5729 47.0526 27.8267C47.0526 28.0805 47.0866 28.3068 47.1548 28.5057C47.2249 28.7045 47.3281 28.8617 47.4645 28.9773C47.6027 29.0909 47.7732 29.1477 47.9759 29.1477ZM52.1151 27.4773V30H50.9048V25.6364H52.0582V26.4062H52.1094C52.206 26.1525 52.3679 25.9517 52.5952 25.804C52.8224 25.6544 53.098 25.5795 53.4219 25.5795C53.7249 25.5795 53.9891 25.6458 54.2145 25.7784C54.4399 25.911 54.6151 26.1004 54.7401 26.3466C54.8651 26.5909 54.9276 26.8826 54.9276 27.2216V30H53.7173V27.4375C53.7192 27.1705 53.651 26.9621 53.5128 26.8125C53.3745 26.661 53.1842 26.5852 52.9418 26.5852C52.7789 26.5852 52.6349 26.6203 52.5099 26.6903C52.3868 26.7604 52.2902 26.8627 52.2202 26.9972C52.152 27.1297 52.117 27.2898 52.1151 27.4773ZM59.5121 26.8807L58.4041 26.9489C58.3852 26.8542 58.3445 26.7689 58.282 26.6932C58.2195 26.6155 58.1371 26.554 58.0348 26.5085C57.9344 26.4612 57.8142 26.4375 57.674 26.4375C57.4865 26.4375 57.3284 26.4773 57.1996 26.5568C57.0708 26.6345 57.0064 26.7386 57.0064 26.8693C57.0064 26.9735 57.0481 27.0616 57.1314 27.1335C57.2147 27.2055 57.3577 27.2633 57.5604 27.3068L58.3501 27.4659C58.7744 27.553 59.0907 27.6932 59.299 27.8864C59.5073 28.0795 59.6115 28.3333 59.6115 28.6477C59.6115 28.9337 59.5272 29.1847 59.3587 29.4006C59.192 29.6165 58.9628 29.785 58.6712 29.9062C58.3814 30.0256 58.0471 30.0852 57.6683 30.0852C57.0907 30.0852 56.6304 29.965 56.2876 29.7244C55.9467 29.482 55.7469 29.1525 55.6882 28.7358L56.8786 28.6733C56.9145 28.8494 57.0017 28.9839 57.1399 29.0767C57.2782 29.1676 57.4553 29.2131 57.6712 29.2131C57.8833 29.2131 58.0537 29.1723 58.1825 29.0909C58.3132 29.0076 58.3795 28.9006 58.3814 28.7699C58.3795 28.66 58.3331 28.5701 58.2422 28.5C58.1513 28.428 58.0111 28.3731 57.8217 28.3352L57.0661 28.1847C56.6399 28.0994 56.3227 27.9517 56.1143 27.7415C55.9079 27.5312 55.8047 27.2633 55.8047 26.9375C55.8047 26.6572 55.8804 26.4157 56.032 26.2131C56.1854 26.0104 56.4003 25.8542 56.6768 25.7443C56.9553 25.6345 57.281 25.5795 57.6541 25.5795C58.2053 25.5795 58.639 25.696 58.9553 25.929C59.2734 26.1619 59.459 26.4792 59.5121 26.8807ZM62.3622 30.0852C61.9134 30.0852 61.527 29.9943 61.2031 29.8125C60.8812 29.6288 60.633 29.3693 60.4588 29.0341C60.2846 28.697 60.1974 28.2983 60.1974 27.8381C60.1974 27.3892 60.2846 26.9953 60.4588 26.6562C60.633 26.3172 60.8783 26.053 61.1946 25.8636C61.5128 25.6742 61.8859 25.5795 62.3139 25.5795C62.6018 25.5795 62.8698 25.6259 63.1179 25.7188C63.3679 25.8097 63.5857 25.947 63.7713 26.1307C63.9588 26.3144 64.1046 26.5455 64.2088 26.8239C64.313 27.1004 64.3651 27.4242 64.3651 27.7955V28.1278H60.6804V27.3778H63.2259C63.2259 27.2036 63.188 27.0492 63.1122 26.9148C63.0365 26.7803 62.9313 26.6752 62.7969 26.5994C62.6643 26.5218 62.5099 26.483 62.3338 26.483C62.1501 26.483 61.9872 26.5256 61.8452 26.6108C61.705 26.6941 61.5952 26.8068 61.5156 26.9489C61.4361 27.089 61.3954 27.2453 61.3935 27.4176V28.1307C61.3935 28.3466 61.4332 28.5331 61.5128 28.6903C61.5942 28.8475 61.7088 28.9688 61.8565 29.054C62.0043 29.1392 62.1795 29.1818 62.3821 29.1818C62.5166 29.1818 62.6397 29.1629 62.7514 29.125C62.8632 29.0871 62.9588 29.0303 63.0384 28.9545C63.1179 28.8788 63.1785 28.786 63.2202 28.6761L64.3395 28.75C64.2827 29.0189 64.1662 29.2538 63.9901 29.4545C63.8158 29.6534 63.5904 29.8087 63.3139 29.9205C63.0393 30.0303 62.7221 30.0852 62.3622 30.0852ZM26.5057 40V34.1818H28.8011C29.2424 34.1818 29.6184 34.2661 29.929 34.4347C30.2396 34.6013 30.4763 34.8333 30.6392 35.1307C30.804 35.4261 30.8864 35.767 30.8864 36.1534C30.8864 36.5398 30.803 36.8807 30.6364 37.1761C30.4697 37.4716 30.2282 37.7017 29.9119 37.8665C29.5975 38.0312 29.2169 38.1136 28.7699 38.1136H27.3068V37.1278H28.571C28.8078 37.1278 29.0028 37.0871 29.1562 37.0057C29.3116 36.9223 29.4271 36.8078 29.5028 36.6619C29.5805 36.5142 29.6193 36.3447 29.6193 36.1534C29.6193 35.9602 29.5805 35.7917 29.5028 35.6477C29.4271 35.5019 29.3116 35.3892 29.1562 35.3097C29.0009 35.2282 28.804 35.1875 28.5653 35.1875H27.7358V40H26.5057ZM32.8729 34.1818V40H31.6626V34.1818H32.8729ZM35.0866 40.0824C34.8082 40.0824 34.5601 40.0341 34.3423 39.9375C34.1245 39.839 33.9522 39.6941 33.8253 39.5028C33.7003 39.3097 33.6378 39.0691 33.6378 38.7812C33.6378 38.5388 33.6823 38.3352 33.7713 38.1705C33.8603 38.0057 33.9815 37.8731 34.1349 37.7727C34.2884 37.6723 34.4626 37.5966 34.6577 37.5455C34.8546 37.4943 35.0611 37.4583 35.277 37.4375C35.5308 37.411 35.7353 37.3864 35.8906 37.3636C36.0459 37.339 36.1586 37.303 36.2287 37.2557C36.2988 37.2083 36.3338 37.1383 36.3338 37.0455V37.0284C36.3338 36.8485 36.277 36.7093 36.1634 36.6108C36.0516 36.5123 35.8925 36.4631 35.6861 36.4631C35.4683 36.4631 35.295 36.5114 35.1662 36.608C35.0374 36.7027 34.9522 36.822 34.9105 36.9659L33.7912 36.875C33.848 36.6098 33.9598 36.3807 34.1264 36.1875C34.2931 35.9924 34.508 35.8428 34.7713 35.7386C35.0365 35.6326 35.3433 35.5795 35.6918 35.5795C35.9342 35.5795 36.1662 35.608 36.3878 35.6648C36.6113 35.7216 36.8092 35.8097 36.9815 35.929C37.1558 36.0483 37.2931 36.2017 37.3935 36.3892C37.4938 36.5748 37.544 36.7973 37.544 37.0568V40H36.3963V39.3949H36.3622C36.2921 39.5312 36.1984 39.6515 36.081 39.7557C35.9635 39.858 35.8224 39.9384 35.6577 39.9972C35.4929 40.054 35.3026 40.0824 35.0866 40.0824ZM35.4332 39.2472C35.6113 39.2472 35.7685 39.2121 35.9048 39.142C36.0412 39.0701 36.1482 38.9735 36.2259 38.8523C36.3035 38.7311 36.3423 38.5937 36.3423 38.4403V37.9773C36.3045 38.0019 36.2524 38.0246 36.1861 38.0455C36.1217 38.0644 36.0488 38.0824 35.9673 38.0994C35.8859 38.1146 35.8045 38.1288 35.723 38.142C35.6416 38.1534 35.5677 38.1638 35.5014 38.1733C35.3594 38.1941 35.2353 38.2273 35.1293 38.2727C35.0232 38.3182 34.9408 38.3797 34.8821 38.4574C34.8234 38.5331 34.794 38.6278 34.794 38.7415C34.794 38.9062 34.8537 39.0322 34.973 39.1193C35.0942 39.2045 35.2476 39.2472 35.4332 39.2472ZM40.804 35.6364V36.5455H38.1761V35.6364H40.804ZM38.7727 34.5909H39.983V38.6591C39.983 38.7708 40 38.858 40.0341 38.9205C40.0682 38.9811 40.1155 39.0237 40.1761 39.0483C40.2386 39.0729 40.3106 39.0852 40.392 39.0852C40.4489 39.0852 40.5057 39.0805 40.5625 39.071C40.6193 39.0597 40.6629 39.0511 40.6932 39.0455L40.8835 39.946C40.8229 39.965 40.7377 39.9867 40.6278 40.0114C40.518 40.0379 40.3845 40.054 40.2273 40.0597C39.9356 40.071 39.6799 40.0322 39.4602 39.9432C39.2424 39.8542 39.0729 39.7159 38.9517 39.5284C38.8305 39.3409 38.7708 39.1042 38.7727 38.8182V34.5909ZM43.9389 35.6364V36.5455H41.2457V35.6364H43.9389ZM41.8622 40V35.321C41.8622 35.0047 41.9238 34.7424 42.0469 34.5341C42.1719 34.3258 42.3423 34.1695 42.5582 34.0653C42.7741 33.9612 43.0194 33.9091 43.294 33.9091C43.4796 33.9091 43.6491 33.9233 43.8026 33.9517C43.9579 33.9801 44.0734 34.0057 44.1491 34.0284L43.9332 34.9375C43.8859 34.9223 43.8272 34.9081 43.7571 34.8949C43.6889 34.8816 43.6188 34.875 43.5469 34.875C43.3688 34.875 43.2448 34.9167 43.1747 35C43.1046 35.0814 43.0696 35.196 43.0696 35.3438V40H41.8622ZM46.4936 40.0852C46.0523 40.0852 45.6707 39.9915 45.3487 39.804C45.0286 39.6146 44.7815 39.3513 44.6072 39.0142C44.433 38.6752 44.3459 38.2822 44.3459 37.8352C44.3459 37.3845 44.433 36.9905 44.6072 36.6534C44.7815 36.3144 45.0286 36.0511 45.3487 35.8636C45.6707 35.6742 46.0523 35.5795 46.4936 35.5795C46.9349 35.5795 47.3156 35.6742 47.6357 35.8636C47.9576 36.0511 48.2057 36.3144 48.38 36.6534C48.5542 36.9905 48.6413 37.3845 48.6413 37.8352C48.6413 38.2822 48.5542 38.6752 48.38 39.0142C48.2057 39.3513 47.9576 39.6146 47.6357 39.804C47.3156 39.9915 46.9349 40.0852 46.4936 40.0852ZM46.4993 39.1477C46.7 39.1477 46.8677 39.0909 47.0021 38.9773C47.1366 38.8617 47.2379 38.7045 47.3061 38.5057C47.3762 38.3068 47.4112 38.0805 47.4112 37.8267C47.4112 37.5729 47.3762 37.3466 47.3061 37.1477C47.2379 36.9489 47.1366 36.7917 47.0021 36.6761C46.8677 36.5606 46.7 36.5028 46.4993 36.5028C46.2966 36.5028 46.1262 36.5606 45.9879 36.6761C45.8516 36.7917 45.7483 36.9489 45.6783 37.1477C45.6101 37.3466 45.576 37.5729 45.576 37.8267C45.576 38.0805 45.6101 38.3068 45.6783 38.5057C45.7483 38.7045 45.8516 38.8617 45.9879 38.9773C46.1262 39.0909 46.2966 39.1477 46.4993 39.1477ZM49.4283 40V35.6364H50.6016V36.3977H50.647C50.7266 36.1269 50.8601 35.9223 51.0476 35.7841C51.2351 35.6439 51.451 35.5739 51.6953 35.5739C51.7559 35.5739 51.8213 35.5777 51.8913 35.5852C51.9614 35.5928 52.023 35.6032 52.076 35.6165V36.6903C52.0192 36.6733 51.9406 36.6581 51.8402 36.6449C51.7398 36.6316 51.648 36.625 51.5646 36.625C51.3866 36.625 51.2275 36.6638 51.0874 36.7415C50.9491 36.8172 50.8393 36.9233 50.7578 37.0597C50.6783 37.196 50.6385 37.3532 50.6385 37.5312V40H49.4283ZM52.7017 40V35.6364H53.8551V36.4062H53.9062C53.9972 36.1506 54.1487 35.9489 54.3608 35.8011C54.5729 35.6534 54.8267 35.5795 55.1222 35.5795C55.4214 35.5795 55.6761 35.6544 55.8864 35.804C56.0966 35.9517 56.2367 36.1525 56.3068 36.4062H56.3523C56.4413 36.1562 56.6023 35.9564 56.8352 35.8068C57.0701 35.6553 57.3475 35.5795 57.6676 35.5795C58.0748 35.5795 58.4053 35.7093 58.6591 35.9688C58.9148 36.2263 59.0426 36.5919 59.0426 37.0653V40H57.8352V37.304C57.8352 37.0616 57.7708 36.8797 57.642 36.7585C57.5133 36.6373 57.3523 36.5767 57.1591 36.5767C56.9394 36.5767 56.768 36.6468 56.6449 36.7869C56.5218 36.9252 56.4602 37.108 56.4602 37.3352V40H55.2869V37.2784C55.2869 37.0644 55.2254 36.8939 55.1023 36.767C54.9811 36.6402 54.821 36.5767 54.6222 36.5767C54.4877 36.5767 54.3665 36.6108 54.2585 36.679C54.1525 36.7453 54.0682 36.839 54.0057 36.9602C53.9432 37.0795 53.9119 37.2197 53.9119 37.3807V40H52.7017Z" fill="#28282B"/>
<rect x="16" width="6" height="44" fill="#28282B"/>
<rect x="8" y="7" width="6" height="34" fill="#28282B"/>
<rect y="12" width="6" height="24" fill="#28282B"/>
</svg>
