<svg width="16" height="16" viewBox="0 0 16 16" fill="none" xmlns="http://www.w3.org/2000/svg">
<path d="M15.5204 5.52027C14.8603 5.02027 14.2001 4.49994 13.5806 3.98042L13.1603 3.64058V0.260161C13.1603 0.120317 13.0399 0 12.9001 0H3.0797C2.93986 0 2.81954 0.120313 2.81954 0.260161V3.63978C2.53986 3.8601 2.2797 4.07962 1.99922 4.29994C1.4789 4.69994 0.95938 5.13979 0.45938 5.56011C0.260162 5.72026 0 5.99995 0 6.39995V14.2C0 15.2 0.82032 16 1.8 16H14.2C15.2 16 16 15.1797 16 14.2V6.39995C16 6.06011 15.8399 5.76011 15.5204 5.52027ZM13.1602 4.32026L13.2399 4.38042C13.8399 4.8601 14.4602 5.3601 15.0797 5.84059L13.1602 7.39997L13.1602 4.32026ZM3.33982 0.520243H12.6398V7.82028L8.00002 11.5999L3.33982 7.82028V0.520243ZM2.33982 4.69986C2.49998 4.56002 2.67966 4.4397 2.83982 4.29986V7.39988L0.9195 5.83971C1.37966 5.46003 1.86012 5.07955 2.33982 4.69986ZM0.52028 14.1999V6.39987C0.52028 6.33972 0.540592 6.27956 0.560124 6.23972L6.03972 10.6999L0.779524 14.9602C0.620148 14.7398 0.52028 14.4796 0.52028 14.1999ZM14.1999 15.4796H1.79988C1.56004 15.4796 1.36004 15.4194 1.16004 15.2999L6.43964 10.9999L7.81932 12.1202C7.83963 12.1202 7.83963 12.1405 7.85916 12.1405L7.87948 12.1608C7.91932 12.1811 7.93963 12.1812 7.97948 12.1812C8.01932 12.1812 8.03963 12.1811 8.07948 12.1608L8.09979 12.1405C8.1201 12.1405 8.1201 12.1202 8.13963 12.1202L9.51931 10.9999L14.7989 15.2999C14.6395 15.4202 14.4202 15.4796 14.1999 15.4796ZM15.4796 14.1999C15.4796 14.4796 15.3796 14.7601 15.2194 14.9601L9.96 10.6797L15.46 6.21943C15.4803 6.27959 15.4998 6.33974 15.4998 6.39912V14.2L15.4796 14.1999Z" fill="black"/>
<path d="M9.77915 7.52027C9.87915 7.42026 9.89947 7.2601 9.79947 7.1601C9.69947 7.0601 9.53931 7.03979 9.43931 7.13979C9.03931 7.47963 8.51899 7.67963 7.97915 7.67963C6.75883 7.67963 5.75875 6.67963 5.75875 5.45922C5.75875 4.23882 6.75875 3.23881 7.97915 3.23881C9.19947 3.23881 10.1995 4.23882 10.1995 5.45922C10.1995 5.53891 10.1995 5.59907 10.1792 5.67954C10.1394 5.87955 9.95891 6.03971 9.73939 6.03971C9.61908 6.03971 9.49955 5.99986 9.41907 5.89986C9.33939 5.82017 9.27923 5.69986 9.27923 5.57954V4.27953C9.27923 4.13969 9.15892 4.01937 9.01907 4.01937C8.87923 4.02015 8.79953 4.09984 8.79953 4.23969V4.39985C8.57921 4.22016 8.29953 4.12017 7.99953 4.12017C7.27921 4.12017 6.67921 4.72017 6.67921 5.4405C6.67921 6.16082 7.27921 6.76082 7.99953 6.76082C8.43937 6.76082 8.81985 6.5405 9.05969 6.22098L9.08 6.24129C9.25969 6.42098 9.50032 6.52097 9.75968 6.52097C10.1995 6.52097 10.5995 6.20065 10.6995 5.78113V5.76082V5.72097C10.6995 5.62097 10.7198 5.54128 10.7198 5.44129C10.7198 3.92096 9.47999 2.70148 7.98003 2.70148C6.48007 2.70148 5.24023 3.94132 5.24023 5.44129C5.24023 6.96162 6.48007 8.1811 7.98003 8.1811C8.65971 8.17954 9.29947 7.93981 9.77915 7.52027ZM8.79947 5.43985C8.79947 5.8797 8.43931 6.23986 7.99947 6.23986C7.55963 6.23986 7.19947 5.8797 7.19947 5.43985C7.19947 5.00001 7.55963 4.63985 7.99947 4.63985C8.43931 4.63985 8.79947 5.00001 8.79947 5.43985Z" fill="black"/>
</svg>
