<svg width="16" height="32" viewBox="0 0 16 32" fill="none" xmlns="http://www.w3.org/2000/svg">
<path d="M13.9892 32H2.01084C0.901262 31.9985 0.00144433 31.064 0 29.9117V2.08826C0.00144655 0.935962 0.901262 0.00149994 2.01084 0H13.9892C15.0987 0.00150225 15.9986 0.935962 16 2.08826V29.9117C15.9986 31.064 15.0987 31.9985 13.9892 32ZM2.01084 1.23203C1.55514 1.23203 1.18624 1.61512 1.18624 2.08838V29.9119C1.18624 30.3851 1.55513 30.7682 2.01084 30.7682H13.9892C14.4449 30.7682 14.8138 30.3851 14.8138 29.9119V2.08838C14.8138 1.61513 14.4449 1.23203 13.9892 1.23203H2.01084Z" fill="black"/>
<path d="M15.4068 5.84718H0.593139C0.266198 5.84718 0 5.57075 0 5.23121C0 4.89167 0.266183 4.61523 0.593139 4.61523H15.4068C15.7337 4.61523 15.9999 4.89167 15.9999 5.23121C15.9999 5.57075 15.7337 5.84718 15.4068 5.84718Z" fill="black"/>
<path d="M15.4068 25.8462H0.593139C0.266198 25.8462 0 25.5698 0 25.2302C0 24.8907 0.266183 24.6143 0.593139 24.6143H15.4068C15.7337 24.6143 15.9999 24.8907 15.9999 25.2302C15.9999 25.5698 15.7337 25.8462 15.4068 25.8462Z" fill="black"/>
<path d="M9.11011 3.53957H6.88806C6.56112 3.53957 6.29492 3.26314 6.29492 2.92359C6.29492 2.58405 6.5611 2.30762 6.88806 2.30762H9.11011C9.43705 2.30762 9.70325 2.58405 9.70325 2.92359C9.70325 3.26314 9.43706 3.53957 9.11011 3.53957Z" fill="black"/>
<path d="M9.91672 29.8849H6.12072C5.46107 29.8834 4.92723 29.3291 4.92578 28.644V27.9709C4.92723 27.2859 5.46103 26.7315 6.12072 26.73H9.91672C10.5764 26.7315 11.1102 27.2858 11.1102 27.9709V28.644C11.1102 29.329 10.5764 29.8834 9.91672 29.8849ZM6.12072 27.9619C6.11638 27.9619 6.11204 27.9649 6.11204 27.9709V28.644C6.11204 28.65 6.11638 28.653 6.12072 28.653H9.91672C9.92251 28.653 9.9254 28.6485 9.9254 28.644V27.9709C9.9254 27.9664 9.92251 27.9619 9.91672 27.9619H6.12072Z" fill="black"/>
<path d="M4.57344 3.53957H4.28701C3.96007 3.53957 3.69531 3.26314 3.69531 2.92359C3.69531 2.58405 3.96005 2.30762 4.28701 2.30762H4.57344C4.90038 2.30762 5.16658 2.58405 5.16658 2.92359C5.16658 3.26314 4.9004 3.53957 4.57344 3.53957Z" fill="black"/>
<path d="M11.7121 3.53957H11.4257C11.0987 3.53957 10.834 3.26314 10.834 2.92359C10.834 2.58405 11.0987 2.30762 11.4257 2.30762H11.7121C12.0391 2.30762 12.3038 2.58405 12.3038 2.92359C12.3038 3.26314 12.0391 3.53957 11.7121 3.53957Z" fill="black"/>
</svg>
