<svg width="24" height="20" viewBox="0 0 24 20" fill="none" xmlns="http://www.w3.org/2000/svg">
<path fill-rule="evenodd" clip-rule="evenodd" d="M0 14.2407V1.31024C0 0.586529 0.65961 0 1.47357 0H22.5264C23.3404 0 24 0.586503 24 1.31024V14.2407C24 14.9644 23.3404 15.5509 22.5264 15.5509H15.3073L16 17.2769C16.3338 17.3684 16.6425 17.531 16.894 17.7546C17.2987 18.1144 17.5262 18.6023 17.5262 19.1106V19.4846C17.5262 19.7693 17.2656 20 16.9466 20H7.05346C6.73336 20 6.47386 19.7693 6.47386 19.4846V19.1106C6.47386 18.6023 6.70135 18.1144 7.10605 17.7546C7.35755 17.531 7.66508 17.3683 8.00002 17.2769L8.69165 15.5509H1.47365C0.659728 15.5509 0 14.9644 0 14.2407ZM22.8407 11.358V1.31024C22.8407 1.15574 22.7001 1.03072 22.5263 1.03072H1.47345C1.29969 1.03072 1.15794 1.15575 1.15794 1.31024V11.358H22.8407ZM1.47351 14.5201H22.5264C22.7001 14.5201 22.8407 14.3951 22.8407 14.2406V12.3886H1.15809V14.2406C1.15809 14.3951 1.29975 14.5201 1.47351 14.5201ZM14.7354 17.1934L14.0769 15.5507H9.92269L9.26422 17.1934H14.7354ZM8.62975 18.224C8.36568 18.224 8.1119 18.3176 7.92557 18.4832C7.77581 18.6164 7.67864 18.7862 7.64549 18.9691H16.3531C16.3199 18.7862 16.2239 18.6164 16.0742 18.4832C15.8878 18.3176 15.634 18.224 15.37 18.224H8.62975ZM10.9344 13.969C10.6143 13.969 10.3548 13.7382 10.3548 13.4536C10.3548 13.17 10.6143 12.9383 10.9344 12.9383H13.0653C13.3854 12.9383 13.6449 13.17 13.6449 13.4536C13.6449 13.7382 13.3854 13.969 13.0653 13.969H10.9344Z" fill="black"/>
</svg>
